<?xml version="1.0" encoding="UTF-8"?>
<svg version="1.1" xmlns="http://www.w3.org/2000/svg" width="229" height="50">
<path d="M0 0 C75.57 0 151.14 0 229 0 C229 16.5 229 33 229 50 C153.43 50 77.86 50 0 50 C0 33.5 0 17 0 0 Z " fill="#FBFBFD" transform="translate(0,0)"/>
<path d="M0 0 C2.64 0 5.28 0 8 0 C9.01142195 3.22570078 10.00708653 6.45605865 11 9.6875 C11.28617188 10.59951172 11.57234375 11.51152344 11.8671875 12.45117188 C12.13789063 13.33740234 12.40859375 14.22363281 12.6875 15.13671875 C13.06455078 16.35427856 13.06455078 16.35427856 13.44921875 17.59643555 C14.03200496 20.13966705 14.09712888 22.39977907 14 25 C14.66 25 15.32 25 16 25 C16.02578125 24.45214844 16.0515625 23.90429688 16.078125 23.33984375 C16.65620186 15.25990583 18.77810968 7.75078019 21 0 C23.64 0 26.28 0 29 0 C31.09036528 4.62328538 32.07325798 9.37710321 33.125 14.3125 C33.30675781 15.14845703 33.48851562 15.98441406 33.67578125 16.84570312 C34.12105365 18.89629972 34.5610552 20.94803962 35 23 C35.33 23 35.66 23 36 23 C37.98 15.41 39.96 7.82 42 0 C44.64 0 47.28 0 50 0 C48.63661254 6.48919991 46.9481062 12.7888328 45 19.125 C44.47875691 20.83581271 43.95791593 22.54674799 43.4375 24.2578125 C43.19257813 25.0612207 42.94765625 25.86462891 42.6953125 26.69238281 C41.76322364 29.78581817 40.87642547 32.89037501 40 36 C37.36 36 34.72 36 32 36 C29.3825293 28.40933497 27.16592905 20.72917828 25 13 C24.73445313 14.07378906 24.46890625 15.14757812 24.1953125 16.25390625 C23.83860579 17.6901201 23.48183134 19.12631712 23.125 20.5625 C22.86396484 21.61920898 22.86396484 21.61920898 22.59765625 22.69726562 C21.48705185 27.16024998 20.28798784 31.58487052 19 36 C16.36 36 13.72 36 11 36 C8.55252977 28.70391368 6.16922455 21.38837614 3.8125 14.0625 C3.44447266 12.92748047 3.07644531 11.79246094 2.69726562 10.62304688 C2.34986328 9.54216797 2.00246094 8.46128906 1.64453125 7.34765625 C1.32846924 6.36804932 1.01240723 5.38844238 0.68676758 4.37915039 C0 2 0 2 0 0 Z " fill="#456FFF" transform="translate(129,9)"/>
<path d="M0 0 C3.526875 -0.103125 7.05375 -0.20625 10.6875 -0.3125 C11.79053467 -0.35802002 12.89356934 -0.40354004 14.0300293 -0.45043945 C21.24509781 -0.55272937 21.24509781 -0.55272937 25.1796875 2.328125 C27.38821091 5.56982031 27.5732917 7.15075573 27 11 C25.6 14.7 25.6 14.7 23 16 C23.66 16.474375 24.32 16.94875 25 17.4375 C27.54338888 20.69621701 27.63430949 22.7610245 27.4609375 26.80859375 C26.71966572 30.3327757 24.8129646 31.90663099 22 34 C19.17588235 34.94137255 17.47081968 35.11725382 14.55078125 35.09765625 C13.78677002 35.09515869 13.02275879 35.09266113 12.2355957 35.09008789 C11.27097412 35.08098389 10.30635254 35.07187988 9.3125 35.0625 C4.7028125 35.0315625 4.7028125 35.0315625 0 35 C0 23.45 0 11.9 0 0 Z " fill="#0A0A0A" transform="translate(0,10)"/>
<path d="M0 0 C2.31 0 4.62 0 7 0 C7 11.88 7 23.76 7 36 C2.483125 36.1546875 2.483125 36.1546875 -2.125 36.3125 C-3.06230957 36.35802002 -3.99961914 36.40354004 -4.96533203 36.45043945 C-9.226085 36.52077137 -12.14512635 36.38563151 -15.5546875 33.66796875 C-19.16842712 29.72518255 -19.34356397 26.41225421 -19.28515625 21.2890625 C-18.84223476 17.73355576 -17.32825076 15.65161892 -15 13 C-11.59075716 10.41367785 -8.15821411 10.77318832 -4 11 C-3.01 11.33 -2.02 11.66 -1 12 C-0.67 8.04 -0.34 4.08 0 0 Z " fill="#090909" transform="translate(92,9)"/>
<path d="M0 0 C2.31 0 4.62 0 7 0 C7 7.92 7 15.84 7 24 C3.98875 24.103125 0.9775 24.20625 -2.125 24.3125 C-3.06230957 24.35802002 -3.99961914 24.40354004 -4.96533203 24.45043945 C-9.26555928 24.52142297 -12.14069839 24.3837988 -15.5546875 21.60546875 C-19.31782942 17.59585907 -19.39795954 14.89800038 -19.3515625 9.546875 C-18.77615781 5.37838771 -17.08634537 3.80576852 -14 1 C-9.81514012 -2.06889725 -4.74215098 -1.58071699 0 0 Z " fill="#090909" transform="translate(50,21)"/>
<path d="M0 0 C2.31 0 4.62 0 7 0 C7.33 5.94 7.66 11.88 8 18 C9.98 16.02 11.96 14.04 14 12 C16.5546875 11.4140625 16.5546875 11.4140625 18.875 11.625 C19.65617187 11.67914063 20.43734375 11.73328125 21.2421875 11.7890625 C21.82226562 11.85867187 22.40234375 11.92828125 23 12 C22.54367188 12.43570312 22.08734375 12.87140625 21.6171875 13.3203125 C19.86373431 15.13666984 18.35592325 16.86864461 17 19 C17.51888752 23.77376521 20.55753276 27.93592272 22.9765625 32.046875 C24 34 24 34 24 36 C20.875 36.625 20.875 36.625 17 36 C14.50484239 32.91488105 12.73463624 29.55822819 11 26 C9.68 26.33 8.36 26.66 7 27 C7 29.97 7 32.94 7 36 C4.69 36 2.38 36 0 36 C0 24.12 0 12.24 0 0 Z " fill="#6E74FF" transform="translate(193,9)"/>
<path d="M0 0 C2.31 0 4.62 0 7 0 C7.06058594 1.14339844 7.12117188 2.28679688 7.18359375 3.46484375 C7.26798428 4.95574305 7.35263302 6.44662775 7.4375 7.9375 C7.47681641 8.69224609 7.51613281 9.44699219 7.55664062 10.22460938 C7.44038024 13.91944187 7.44038024 13.91944187 9 17 C10.99958364 17.04080783 13.00045254 17.04254356 15 17 C16.52106634 13.95786733 16.37429338 10.71952428 16.5625 7.375 C16.60568359 6.66859375 16.64886719 5.9621875 16.69335938 5.234375 C16.79944751 3.48981463 16.90022889 1.74493303 17 0 C19.31 0 21.62 0 24 0 C24.08152344 2.54232342 24.14073716 5.08199202 24.1875 7.625 C24.21263672 8.33785156 24.23777344 9.05070312 24.26367188 9.78515625 C24.3299933 14.60451346 23.643189 17.81175849 21 22 C16.70356211 24.86429193 10.9839621 24.68744305 6 24 C3.06576805 22.20353146 1.52794645 21.0558929 0 18 C-0.08308638 16.62451844 -0.10736016 15.24514204 -0.09765625 13.8671875 C-0.09443359 13.06152344 -0.09121094 12.25585938 -0.08789062 11.42578125 C-0.07951172 10.58402344 -0.07113281 9.74226563 -0.0625 8.875 C-0.05798828 8.02550781 -0.05347656 7.17601562 -0.04882812 6.30078125 C-0.03702874 4.20049091 -0.01909306 2.1002367 0 0 Z " fill="#090909" transform="translate(105,21)"/>
<path d="M0 0 C2.31 0 4.62 0 7 0 C7 7.92 7 15.84 7 24 C4.69 24 2.38 24 0 24 C0 16.08 0 8.16 0 0 Z " fill="#8774FF" transform="translate(221,21)"/>
<path d="M0 0 C2.31 0 4.62 0 7 0 C7 7.92 7 15.84 7 24 C4.69 24 2.38 24 0 24 C0 16.08 0 8.16 0 0 Z " fill="#5D70FF" transform="translate(181,21)"/>
<path d="M0 0 C2.31 0 4.62 0 7 0 C7 7.92 7 15.84 7 24 C4.69 24 2.38 24 0 24 C0 16.08 0 8.16 0 0 Z " fill="#111111" transform="translate(62,21)"/>
<path d="M0 0 C2.32528287 2.32528287 2.29511025 2.84665898 2.3125 6 C2.32925781 6.70125 2.34601563 7.4025 2.36328125 8.125 C2.18345703 9.053125 2.18345703 9.053125 2 10 C-1.46923881 12.31282587 -2.92205575 12.42478586 -7 12 C-8.875 10.9375 -8.875 10.9375 -10 9 C-10.4375 5.5 -10.4375 5.5 -10 2 C-7.00303875 -1.6885677 -4.34072074 -1.22672543 0 0 Z " fill="#F7F7F7" transform="translate(90,27)"/>
<path d="M0 0 C0.66 0.33 1.32 0.66 2 1 C2.08096803 2.45742463 2.13917774 3.91612807 2.1875 5.375 C2.22230469 6.18710937 2.25710937 6.99921875 2.29296875 7.8359375 C2.19628906 8.55007812 2.09960938 9.26421875 2 10 C-1.46923881 12.31282587 -2.92205575 12.42478586 -7 12 C-8.875 10.875 -8.875 10.875 -10 9 C-10.38976435 5.88188517 -10.50422245 3.88980433 -8.9375 1.125 C-5.96164925 -0.60291334 -3.36405631 -0.24465864 0 0 Z " fill="#F9F9F9" transform="translate(48,27)"/>
<path d="M0 0 C1.79133978 -0.05391993 3.58313899 -0.09275571 5.375 -0.125 C6.37273438 -0.14820312 7.37046875 -0.17140625 8.3984375 -0.1953125 C11 0 11 0 13 2 C13.1875 4.5625 13.1875 4.5625 13 7 C12 8 12 8 9.27734375 8.09765625 C7.62412109 8.08025391 7.62412109 8.08025391 5.9375 8.0625 C4.83277344 8.05347656 3.72804688 8.04445313 2.58984375 8.03515625 C1.30787109 8.01775391 1.30787109 8.01775391 0 8 C0 5.36 0 2.72 0 0 Z " fill="#FCFCFC" transform="translate(7,30)"/>
<path d="M0 0 C3.96 0 7.92 0 12 0 C13 5 13 5 11.88671875 6.80078125 C9.39339641 8.38556377 7.74365456 8.30170083 4.8125 8.1875 C3.91144531 8.16042969 3.01039062 8.13335937 2.08203125 8.10546875 C1.39496094 8.07066406 0.70789063 8.03585938 0 8 C0 5.36 0 2.72 0 0 Z " fill="#F1F1F1" transform="translate(7,16)"/>
<path d="M0 0 C0.66 0 1.32 0 2 0 C2.268125 0.598125 2.53625 1.19625 2.8125 1.8125 C3.98493467 3.97224808 5.19369282 5.35790256 7 7 C6.38125 7.433125 5.7625 7.86625 5.125 8.3125 C2.7802755 9.99740483 2.7802755 9.99740483 1 13 C0.7525 12.38125 0.505 11.7625 0.25 11.125 C-1.20628639 8.64931313 -2.37812506 8.04874998 -5 7 C-5 6.34 -5 5.68 -5 5 C-4.360625 4.731875 -3.72125 4.46375 -3.0625 4.1875 C-0.66868314 3.11332248 -0.66868314 3.11332248 0 0 Z " fill="#121212" transform="translate(64,5)"/>
<path d="M0 0 C2.625 0.375 2.625 0.375 5 1 C5.625 3.375 5.625 3.375 6 6 C4 8 4 8 1.4375 8.1875 C-1 8 -1 8 -2 7 C-2.1875 4.5625 -2.1875 4.5625 -2 2 C-1.34 1.34 -0.68 0.68 0 0 Z " fill="#7073FF" transform="translate(223,9)"/>
<path d="M0 0 C4.70588235 0.70588235 4.70588235 0.70588235 6 2 C6.125 4.5 6.125 4.5 6 7 C5 8 5 8 2.5625 8.1875 C0 8 0 8 -2 6 C-1.44444444 1.44444444 -1.44444444 1.44444444 0 0 Z " fill="#4670FF" transform="translate(182,9)"/>
</svg>
